<svg width="45" height="60" viewBox="0 0 45 60" fill="none" xmlns="http://www.w3.org/2000/svg">
<path d="M11.381 42.4957C10.3626 41.4773 10.8935 41.7644 8.43724 41.107C7.32279 40.8082 6.3431 40.234 5.45716 39.5461L0.140368 52.582C-0.374085 53.8441 0.586853 55.2152 1.94857 55.1636L8.12318 54.9281L12.3701 59.414C13.3076 60.4031 14.9529 60.0949 15.4673 58.8328L21.5669 43.8773C20.2966 44.5851 18.8869 45 17.429 45C15.1439 45 12.997 44.1105 11.381 42.4957ZM44.8591 52.582L39.5423 39.5461C38.6564 40.2351 37.6767 40.8082 36.5622 41.107C34.0931 41.7679 34.6345 41.4797 33.6185 42.4957C32.0025 44.1105 29.8544 45 27.5693 45C26.1115 45 24.7017 44.584 23.4314 43.8773L29.531 58.8328C30.0454 60.0949 31.6919 60.4031 32.6283 59.414L36.8763 54.9281L43.0509 55.1636C44.4126 55.2152 45.3736 53.8429 44.8591 52.582ZM30.8201 39.8437C32.6107 38.0215 32.8158 38.1785 35.3658 37.4836C36.9935 37.0394 38.2661 35.7445 38.7021 34.0875C39.5786 30.7593 39.3513 31.1613 41.7431 28.7261C42.9349 27.5132 43.4001 25.7449 42.9642 24.0879C42.0888 20.7621 42.0876 21.2261 42.9642 17.8968C43.4001 16.2398 42.9349 14.4715 41.7431 13.2586C39.3513 10.8234 39.5786 11.2242 38.7021 7.89723C38.2661 6.2402 36.9935 4.94528 35.3658 4.50114C32.0986 3.60934 32.4923 3.84255 30.0982 1.40622C28.9064 0.193328 27.1685 -0.281282 25.5408 0.162859C22.2747 1.05348 22.7306 1.05466 19.4587 0.162859C17.831 -0.281282 16.0931 0.192156 14.9013 1.40622C12.5095 3.84137 12.9033 3.60934 9.6349 4.50114C8.00716 4.94528 6.73451 6.2402 6.29857 7.89723C5.42318 11.2242 5.64935 10.8234 3.25756 13.2586C2.06576 14.4715 1.59935 16.2398 2.03646 17.8968C2.91185 21.2203 2.91302 20.7562 2.03646 24.0867C1.60052 25.7437 2.06576 27.5121 3.25756 28.7261C5.64935 31.1613 5.42201 30.7593 6.29857 34.0875C6.73451 35.7445 8.00716 37.0394 9.6349 37.4836C12.2576 38.1984 12.4533 38.0859 14.1794 39.8437C15.7298 41.4222 18.1451 41.7047 20.0083 40.5257C20.7534 40.0527 21.6178 39.8015 22.5003 39.8015C23.3829 39.8015 24.2472 40.0527 24.9923 40.5257C26.8544 41.7047 29.2697 41.4222 30.8201 39.8437ZM11.4443 20.6203C11.4443 14.4058 16.3943 9.36794 22.4997 9.36794C28.6052 9.36794 33.5552 14.4058 33.5552 20.6203C33.5552 26.8347 28.6052 31.8726 22.4997 31.8726C16.3943 31.8726 11.4443 26.8347 11.4443 20.6203Z" fill="black"/>
</svg>
