<svg width="67" height="67" viewBox="0 0 67 67" fill="none" xmlns="http://www.w3.org/2000/svg">
<g clip-path="url(#clip0_252_1490)">
<path d="M22.6126 37.2407L30.513 29.3402L13.2326 12.0877C11.8926 10.7477 9.5755 11.1107 8.738 12.8415C6.75592 17.0011 7.48175 22.1098 10.9155 25.5715L22.6126 37.2407ZM41.5401 32.1877C45.8113 34.1698 51.8134 32.774 56.2522 28.3352C61.5843 23.0032 62.6172 15.354 58.5134 11.2502C54.4376 7.1744 46.7884 8.1794 41.4284 13.5115C36.9897 17.9502 35.5938 23.9523 37.5759 28.2236L12.2834 53.5161C11.1947 54.6048 11.1947 56.3636 12.2834 57.4523C13.3722 58.5411 15.1309 58.5411 16.2197 57.4523L33.5001 40.2277L50.7526 57.4802C51.8413 58.569 53.6001 58.569 54.6888 57.4802C55.7776 56.3915 55.7776 54.6327 54.6888 53.544L37.4363 36.2915L41.5401 32.1877Z" fill="black"/>
</g>
<defs>
<clipPath id="clip0_252_1490">
<rect width="67" height="67" fill="white"/>
</clipPath>
</defs>
</svg>
