<svg width="43" height="44" viewBox="0 0 43 44" fill="none" xmlns="http://www.w3.org/2000/svg">
<path d="M32.9219 0.389648H10.0781C4.51213 0.389648 0 4.90178 0 10.4678V33.3115C0 38.8775 4.51213 43.3896 10.0781 43.3896H32.9219C38.4879 43.3896 43 38.8775 43 33.3115V10.4678C43 4.90178 38.4879 0.389648 32.9219 0.389648Z" fill="url(#paint0_radial_252_1527)"/>
<path d="M32.9219 0.389648H10.0781C4.51213 0.389648 0 4.90178 0 10.4678V33.3115C0 38.8775 4.51213 43.3896 10.0781 43.3896H32.9219C38.4879 43.3896 43 38.8775 43 33.3115V10.4678C43 4.90178 38.4879 0.389648 32.9219 0.389648Z" fill="url(#paint1_radial_252_1527)"/>
<path d="M21.5015 5.09277C16.9398 5.09277 16.3672 5.11276 14.5757 5.19423C12.7875 5.2762 11.5668 5.55922 10.4989 5.97461C9.39399 6.4036 8.45689 6.97755 7.52332 7.91146C6.58891 8.8452 6.01496 9.78229 5.58463 10.8867C5.16806 11.955 4.8847 13.1761 4.80424 14.9635C4.72412 16.7552 4.70312 17.328 4.70312 21.8898C4.70312 26.4517 4.72328 27.0224 4.80458 28.814C4.88688 30.6022 5.16991 31.8228 5.58496 32.8908C6.01429 33.9957 6.58824 34.9328 7.52214 35.8663C8.45555 36.8007 9.39264 37.376 10.4967 37.805C11.5655 38.2204 12.7863 38.5034 14.5741 38.5854C16.3659 38.6669 16.938 38.6869 21.4995 38.6869C26.0617 38.6869 26.6325 38.6669 28.424 38.5854C30.2122 38.5034 31.4342 38.2204 32.503 37.805C33.6074 37.376 34.5431 36.8007 35.4763 35.8663C36.4108 34.9328 36.9845 33.9957 37.415 32.8913C37.8279 31.8228 38.1114 30.6019 38.1954 28.8143C38.2759 27.0228 38.2969 26.4517 38.2969 21.8898C38.2969 17.328 38.2759 16.7555 38.1954 14.9638C38.1114 13.1756 37.8279 11.9551 37.415 10.8872C36.9845 9.78229 36.4108 8.8452 35.4763 7.91146C34.5421 6.97721 33.6077 6.40327 32.502 5.97478C31.4312 5.55922 30.2099 5.27603 28.4217 5.19423C26.6299 5.11276 26.0595 5.09277 21.4963 5.09277H21.5015ZM19.9947 8.11974C20.442 8.11907 20.941 8.11974 21.5015 8.11974C25.9864 8.11974 26.5179 8.13586 28.289 8.21632C29.9267 8.29123 30.8155 8.56486 31.4076 8.7948C32.1915 9.09916 32.7504 9.46315 33.3379 10.0512C33.9258 10.6391 34.2896 11.1989 34.5948 11.9829C34.8248 12.5741 35.0988 13.463 35.1733 15.1007C35.2538 16.8714 35.2713 17.4032 35.2713 21.886C35.2713 26.3687 35.2538 26.9007 35.1733 28.6712C35.0984 30.3089 34.8248 31.1978 34.5948 31.7892C34.2905 32.5731 33.9258 33.1313 33.3379 33.7188C32.75 34.3067 32.1919 34.6706 31.4076 34.9751C30.8162 35.206 29.9267 35.479 28.289 35.5539C26.5182 35.6344 25.9864 35.6518 21.5015 35.6518C17.0164 35.6518 16.4848 35.6344 14.7142 35.5539C13.0765 35.4783 12.1876 35.2047 11.5951 34.9747C10.8113 34.6702 10.2513 34.3064 9.66341 33.7185C9.07552 33.1306 8.7117 32.5721 8.4065 31.7879C8.17655 31.1965 7.90259 30.3076 7.82802 28.6699C7.74756 26.8991 7.73143 26.3674 7.73143 21.8818C7.73143 17.3963 7.74756 16.8672 7.82802 15.0965C7.90293 13.4588 8.17655 12.5699 8.4065 11.9778C8.71103 11.1939 9.07552 10.6341 9.66358 10.0462C10.2515 9.45828 10.8113 9.09429 11.5952 8.78926C12.1873 8.5583 13.0765 8.28536 14.7142 8.21011C16.2637 8.14006 16.8642 8.11907 19.9947 8.11554V8.11974ZM30.4677 10.9087C29.3549 10.9087 28.4521 11.8107 28.4521 12.9236C28.4521 14.0364 29.3549 14.9393 30.4677 14.9393C31.5805 14.9393 32.4833 14.0364 32.4833 12.9236C32.4833 11.8109 31.5805 10.908 30.4677 10.908V10.9087ZM21.5015 13.2638C16.7379 13.2638 12.8756 17.1261 12.8756 21.8898C12.8756 26.6536 16.7379 30.514 21.5015 30.514C26.2653 30.514 30.1262 26.6536 30.1262 21.8898C30.1262 17.1262 26.2649 13.2638 21.5012 13.2638H21.5015ZM21.5015 16.2907C24.5936 16.2907 27.1006 18.7973 27.1006 21.8898C27.1006 24.982 24.5936 27.4889 21.5015 27.4889C18.4092 27.4889 15.9026 24.982 15.9026 21.8898C15.9026 18.7973 18.4092 16.2907 21.5015 16.2907Z" fill="white"/>
<defs>
<radialGradient id="paint0_radial_252_1527" cx="0" cy="0" r="1" gradientUnits="userSpaceOnUse" gradientTransform="translate(11.4219 46.7015) rotate(-90) scale(42.6162 39.6364)">
<stop stop-color="#FFDD55"/>
<stop offset="0.1" stop-color="#FFDD55"/>
<stop offset="0.5" stop-color="#FF543E"/>
<stop offset="1" stop-color="#C837AB"/>
</radialGradient>
<radialGradient id="paint1_radial_252_1527" cx="0" cy="0" r="1" gradientUnits="userSpaceOnUse" gradientTransform="translate(-7.20267 3.48716) rotate(78.681) scale(19.0497 78.5234)">
<stop stop-color="#3771C8"/>
<stop offset="0.128" stop-color="#3771C8"/>
<stop offset="1" stop-color="#6600FF" stop-opacity="0"/>
</radialGradient>
</defs>
</svg>
