<svg width="43" height="44" viewBox="0 0 43 44" fill="none" xmlns="http://www.w3.org/2000/svg">
<g clip-path="url(#clip0_252_1521)">
<path d="M0.917637 21.6325C0.916629 25.2453 1.868 28.773 3.67703 31.8823L0.744629 42.506L11.7016 39.6553C14.7321 41.2924 18.1276 42.1501 21.5781 42.1503H21.5872C32.978 42.1503 42.2504 32.9532 42.2552 21.6487C42.2574 16.1708 40.1095 11.0198 36.2069 7.1445C32.305 3.2695 27.1156 1.13434 21.5864 1.13184C10.1942 1.13184 0.922508 10.3285 0.917805 21.6325" fill="url(#paint0_linear_252_1521)"/>
<path d="M0.179727 21.6256C0.178551 25.3685 1.16402 29.0223 3.03755 32.243L0 43.2475L11.3498 40.2946C14.4771 41.9865 17.998 42.8785 21.5808 42.8798H21.59C33.3895 42.8798 42.995 33.3518 43 21.6426C43.002 15.968 40.7768 10.6318 36.7348 6.61765C32.6923 2.60398 27.3173 0.391982 21.59 0.389648C9.78855 0.389648 0.18443 9.91632 0.179727 21.6256ZM6.93879 31.6883L6.515 31.0208C4.73353 28.2101 3.79324 24.9622 3.79458 21.627C3.79845 11.8945 11.781 3.97632 21.5968 3.97632C26.3503 3.97832 30.8176 5.81698 34.1776 9.15298C37.5375 12.4893 39.3863 16.9243 39.3851 21.6413C39.3808 31.3738 31.3981 39.293 21.59 39.293H21.583C18.3894 39.2913 15.2573 38.4403 12.5258 36.8321L11.8757 36.4496L5.14052 38.2018L6.93879 31.6881V31.6883Z" fill="url(#paint1_linear_252_1521)"/>
<path d="M16.2388 12.7479C15.838 11.864 15.4162 11.8462 15.0351 11.8307C14.723 11.8174 14.3663 11.8184 14.0098 11.8184C13.6531 11.8184 13.0734 11.9515 12.5835 12.4824C12.093 13.0137 10.7109 14.2977 10.7109 16.9092C10.7109 19.5209 12.628 22.0447 12.8952 22.3992C13.1628 22.753 16.5961 28.2837 22.0335 30.4114C26.5526 32.1795 27.4722 31.8279 28.453 31.7392C29.4339 31.6509 31.6182 30.4555 32.0638 29.216C32.5098 27.9767 32.5098 26.9144 32.376 26.6924C32.2423 26.4712 31.8856 26.3384 31.3506 26.073C30.8155 25.8075 28.1854 24.5234 27.6951 24.3462C27.2046 24.1692 26.848 24.0809 26.4913 24.6124C26.1345 25.143 25.1101 26.3384 24.7978 26.6924C24.4859 27.0472 24.1736 27.0914 23.6388 26.8259C23.1035 26.5595 21.3806 25.9997 19.3366 24.1915C17.7463 22.7845 16.6727 21.047 16.3606 20.5155C16.0485 19.9849 16.3271 19.6972 16.5954 19.4327C16.8357 19.1949 17.1305 18.8129 17.3983 18.503C17.665 18.193 17.754 17.9719 17.9324 17.6179C18.111 17.2635 18.0216 16.9535 17.8881 16.688C17.754 16.4225 16.7145 13.7974 16.2388 12.7479Z" fill="white"/>
</g>
<defs>
<linearGradient id="paint0_linear_252_1521" x1="2076.28" y1="4138.55" x2="2076.28" y2="1.13184" gradientUnits="userSpaceOnUse">
<stop stop-color="#1FAF38"/>
<stop offset="1" stop-color="#60D669"/>
</linearGradient>
<linearGradient id="paint1_linear_252_1521" x1="2150" y1="4286.17" x2="2150" y2="0.389648" gradientUnits="userSpaceOnUse">
<stop stop-color="#F9F9F9"/>
<stop offset="1" stop-color="white"/>
</linearGradient>
<clipPath id="clip0_252_1521">
<rect width="43" height="43" fill="white" transform="translate(0 0.389648)"/>
</clipPath>
</defs>
</svg>
