<svg width="25" height="25" viewBox="0 0 25 25" fill="none" xmlns="http://www.w3.org/2000/svg">
<g id="codicon:account" clip-path="url(#clip0_103_3285)">
<path id="Vector" d="M24.5869 12.488C24.5869 5.87 19.2109 0.5 12.5869 0.5C5.96291 0.5 0.586914 5.87 0.586914 12.488C0.586914 16.133 2.24291 19.418 4.83491 21.623C4.85891 21.647 4.88291 21.647 4.88291 21.671C5.09891 21.839 5.31491 22.007 5.55491 22.175C5.67491 22.247 5.77091 22.3415 5.89091 22.4375C7.87402 23.782 10.215 24.5005 12.6109 24.5C15.0068 24.5005 17.3478 23.782 19.3309 22.4375C19.4509 22.3655 19.5469 22.271 19.6669 22.1975C19.8829 22.031 20.1229 21.863 20.3389 21.695C20.3629 21.671 20.3869 21.671 20.3869 21.647C22.9309 19.4165 24.5869 16.133 24.5869 12.488ZM12.5869 22.9895C10.3309 22.9895 8.26691 22.2695 6.56291 21.071C6.58691 20.879 6.63491 20.6885 6.68291 20.4965C6.82592 19.9762 7.03566 19.4765 7.30691 19.01C7.57091 18.554 7.88291 18.146 8.26691 17.786C8.62691 17.426 9.05891 17.0915 9.49091 16.8275C9.94691 16.5635 10.4269 16.3715 10.9549 16.2275C11.487 16.0841 12.0358 16.0119 12.5869 16.013C14.2229 16.0014 15.7988 16.629 16.9789 17.762C17.5309 18.314 17.9629 18.962 18.2749 19.7045C18.4429 20.1365 18.5629 20.5925 18.6349 21.071C16.8637 22.3162 14.7521 22.9861 12.5869 22.9895ZM8.91491 11.8895C8.70345 11.4053 8.59711 10.8818 8.60291 10.3535C8.60291 9.827 8.69891 9.299 8.91491 8.819C9.13091 8.339 9.41891 7.9085 9.77891 7.5485C10.1389 7.1885 10.5709 6.902 11.0509 6.686C11.5309 6.47 12.0589 6.374 12.5869 6.374C13.1389 6.374 13.6429 6.47 14.1229 6.686C14.6029 6.902 15.0349 7.19 15.3949 7.5485C15.7549 7.9085 16.0429 8.3405 16.2589 8.819C16.4749 9.299 16.5709 9.827 16.5709 10.3535C16.5709 10.9055 16.4749 11.4095 16.2589 11.888C16.0505 12.3609 15.7577 12.7919 15.3949 13.16C15.0267 13.5222 14.5957 13.8145 14.1229 14.0225C13.1312 14.4301 12.0187 14.4301 11.0269 14.0225C10.5541 13.8145 10.1231 13.5222 9.75491 13.16C9.39164 12.7973 9.10585 12.366 8.91491 11.8895ZM20.0509 19.8485C20.0509 19.8005 20.0269 19.7765 20.0269 19.7285C19.7909 18.9776 19.443 18.2666 18.9949 17.6195C18.5464 16.9676 17.9953 16.3926 17.3629 15.917C16.8799 15.5537 16.3564 15.2476 15.8029 15.005C16.0547 14.8389 16.2881 14.6463 16.4989 14.4305C16.8567 14.0773 17.171 13.6824 17.4349 13.2545C17.9665 12.3812 18.241 11.3757 18.2269 10.3535C18.2343 9.59677 18.0873 8.84648 17.7949 8.1485C17.5062 7.47596 17.0906 6.86533 16.5709 6.35C16.052 5.84005 15.4412 5.43289 14.7709 5.15C14.0718 4.85809 13.3205 4.71161 12.5629 4.7195C11.8052 4.71209 11.0539 4.85908 10.3549 5.1515C9.67879 5.43378 9.06658 5.84958 8.55491 6.374C8.04498 6.89238 7.6378 7.50263 7.35491 8.1725C7.06249 8.87048 6.91549 9.62077 6.92291 10.3775C6.92291 10.9055 6.99491 11.4095 7.13891 11.888C7.28291 12.392 7.47491 12.848 7.73891 13.2785C7.97891 13.7105 8.31491 14.0945 8.67491 14.4545C8.89091 14.6705 9.13091 14.861 9.39491 15.029C8.83967 15.2781 8.31599 15.5923 7.83491 15.965C7.21091 16.445 6.65891 17.0195 6.20291 17.6435C5.7503 18.2879 5.40203 18.9997 5.17091 19.7525C5.14691 19.8005 5.14691 19.8485 5.14691 19.8725C3.25091 17.954 2.07491 15.365 2.07491 12.488C2.07491 6.71 6.80291 1.9865 12.5869 1.9865C18.3709 1.9865 23.0989 6.71 23.0989 12.488C23.0958 15.2479 21.9999 17.8943 20.0509 19.8485Z" fill="white"/>
</g>
<defs>
<clipPath id="clip0_103_3285">
<rect width="24" height="24" fill="white" transform="translate(0.586914 0.5)"/>
</clipPath>
</defs>
</svg>
