<svg width="17" height="17" viewBox="0 0 17 17" fill="none" xmlns="http://www.w3.org/2000/svg">
<g clip-path="url(#clip0_419_1445)">
<path d="M11.3334 7.79169C12.5092 7.79169 13.4513 6.84252 13.4513 5.66669C13.4513 4.49085 12.5092 3.54169 11.3334 3.54169C10.1575 3.54169 9.20837 4.49085 9.20837 5.66669C9.20837 6.84252 10.1575 7.79169 11.3334 7.79169ZM5.66671 7.79169C6.84254 7.79169 7.78462 6.84252 7.78462 5.66669C7.78462 4.49085 6.84254 3.54169 5.66671 3.54169C4.49087 3.54169 3.54171 4.49085 3.54171 5.66669C3.54171 6.84252 4.49087 7.79169 5.66671 7.79169ZM5.66671 9.20835C4.01629 9.20835 0.708374 10.0371 0.708374 11.6875V12.75C0.708374 13.1396 1.02712 13.4584 1.41671 13.4584H9.91671C10.3063 13.4584 10.625 13.1396 10.625 12.75V11.6875C10.625 10.0371 7.31712 9.20835 5.66671 9.20835ZM11.3334 9.20835C11.128 9.20835 10.8942 9.22252 10.6463 9.24377C10.6605 9.25085 10.6675 9.26502 10.6746 9.2721C11.4821 9.86002 12.0417 10.6463 12.0417 11.6875V12.75C12.0417 12.9979 11.9921 13.2388 11.9142 13.4584H15.5834C15.973 13.4584 16.2917 13.1396 16.2917 12.75V11.6875C16.2917 10.0371 12.9838 9.20835 11.3334 9.20835Z" fill="#323232"/>
</g>
<defs>
<clipPath id="clip0_419_1445">
<rect width="17" height="17" fill="white"/>
</clipPath>
</defs>
</svg>
