<svg width="19" height="12" viewBox="0 0 19 12" fill="none" xmlns="http://www.w3.org/2000/svg">
<path fill-rule="evenodd" clip-rule="evenodd" d="M0 5.77848C0 5.61617 0.0714875 5.46051 0.198736 5.34574C0.325985 5.23098 0.498571 5.1665 0.678528 5.1665H16.6823L12.4116 1.31593C12.2842 1.20102 12.2126 1.04516 12.2126 0.882649C12.2126 0.720137 12.2842 0.564281 12.4116 0.449368C12.539 0.334455 12.7119 0.269897 12.892 0.269897C13.0722 0.269897 13.245 0.334455 13.3724 0.449368L18.8007 5.3452C18.8638 5.40204 18.914 5.46958 18.9482 5.54393C18.9824 5.61828 19 5.69798 19 5.77848C19 5.85897 18.9824 5.93868 18.9482 6.01303C18.914 6.08738 18.8638 6.15491 18.8007 6.21176L13.3724 11.1076C13.245 11.2225 13.0722 11.2871 12.892 11.2871C12.7119 11.2871 12.539 11.2225 12.4116 11.1076C12.2842 10.9927 12.2126 10.8368 12.2126 10.6743C12.2126 10.5118 12.2842 10.3559 12.4116 10.241L16.6823 6.39046H0.678528C0.498571 6.39046 0.325985 6.32598 0.198736 6.21121C0.0714875 6.09644 0 5.94078 0 5.77848Z" fill="white"/>
</svg>
