<svg width="55" height="56" viewBox="0 0 55 56" fill="none" xmlns="http://www.w3.org/2000/svg">
<g clip-path="url(#clip0_82_93)">
<path d="M19.125 40.5534H40.375V36.2968H19.125V40.5534ZM19.125 27.7835H31.875V23.5269H19.125V27.7835ZM19.125 10.757V15.0136H44.625V10.757H19.125ZM10.625 9.69284C10.2063 9.69298 9.79167 9.77572 9.40487 9.93634C9.01807 10.097 8.66664 10.3323 8.37066 10.629C8.07467 10.9256 7.83992 11.2777 7.67981 11.6652C7.5197 12.0528 7.43736 12.4681 7.4375 12.8874C7.43764 13.3068 7.52025 13.7221 7.68062 14.1095C7.84099 14.4969 8.07598 14.8489 8.37216 15.1453C8.66834 15.4418 9.01993 15.6769 9.40683 15.8372C9.79374 15.9976 10.2084 16.0801 10.6271 16.0799C11.4728 16.0796 12.2837 15.7429 12.8815 15.1438C13.4792 14.5447 13.8149 13.7323 13.8146 12.8853C13.8143 12.0383 13.4781 11.2262 12.88 10.6275C12.2818 10.0287 11.4707 9.69256 10.625 9.69284ZM10.625 22.4627C10.2063 22.4629 9.79167 22.5456 9.40487 22.7062C9.01807 22.8669 8.66664 23.1022 8.37066 23.3988C8.07467 23.6955 7.83992 24.0476 7.67981 24.4351C7.5197 24.8226 7.43736 25.238 7.4375 25.6573C7.43764 26.0767 7.52025 26.492 7.68062 26.8794C7.84099 27.2668 8.07598 27.6187 8.37216 27.9152C8.66834 28.2116 9.01993 28.4468 9.40683 28.6071C9.79374 28.7675 10.2084 28.8499 10.6271 28.8498C11.4728 28.8495 12.2837 28.5128 12.8815 27.9137C13.4792 27.3146 13.8149 26.5022 13.8146 25.6552C13.8143 24.8082 13.4781 23.996 12.88 23.3973C12.2818 22.7986 11.4707 22.4624 10.625 22.4627ZM10.625 35.2326C10.2063 35.2328 9.79167 35.3155 9.40487 35.4761C9.01807 35.6367 8.66664 35.8721 8.37066 36.1687C8.07467 36.4654 7.83992 36.8175 7.67981 37.205C7.5197 37.5925 7.43736 38.0078 7.4375 38.4272C7.43764 38.8466 7.52025 39.2619 7.68062 39.6493C7.84099 40.0367 8.07598 40.3886 8.37216 40.6851C8.66834 40.9815 9.01993 41.2167 9.40683 41.377C9.79374 41.5374 10.2084 41.6198 10.6271 41.6197C11.4728 41.6194 12.2837 41.2827 12.8815 40.6836C13.4792 40.0845 13.8149 39.2721 13.8146 38.4251C13.8143 37.5781 13.4781 36.7659 12.88 36.1672C12.2818 35.5685 11.4707 35.2323 10.625 35.2326Z" fill="#016199"/>
</g>
<defs>
<clipPath id="clip0_82_93">
<path d="M0 3.11542C0 1.45856 1.34315 0.115417 3 0.115417H55V55.2012H0V3.11542Z" fill="white"/>
</clipPath>
</defs>
</svg>
