<svg width="55" height="56" viewBox="0 0 55 56" fill="none" xmlns="http://www.w3.org/2000/svg">
<g clip-path="url(#clip0_82_209)">
<g clip-path="url(#clip1_82_209)">
<path d="M9.58843 7.71246H37.412C38.6872 7.71246 39.777 8.17691 40.6812 9.08259C41.5855 9.98826 42.0492 11.0797 42.0492 12.357V28.6127C42.0492 29.8899 41.5855 30.9814 40.6812 31.887C39.777 32.7927 38.6872 33.2572 37.412 33.2572H35.0933L23.5002 44.8684V33.2572H9.58843C8.31318 33.2572 7.22343 32.7927 6.31916 31.887C5.4149 30.9814 4.95117 29.8899 4.95117 28.6127V12.357C4.95117 11.0797 5.4149 9.98826 6.31916 9.08259C7.22343 8.17691 8.31318 7.71246 9.58843 7.71246ZM35.0933 12.357H9.58843V14.6792H35.0933V12.357ZM37.412 19.3237H9.58843V21.6459H37.412V19.3237ZM30.4561 26.2904H9.58843V28.6127H30.4561V26.2904Z" fill="#B83B2D"/>
</g>
</g>
<defs>
<clipPath id="clip0_82_209">
<path d="M0 3.74573C0 2.08887 1.34315 0.745728 3 0.745728H55V55.8315H0V3.74573Z" fill="white"/>
</clipPath>
<clipPath id="clip1_82_209">
<rect width="55" height="55.0858" fill="white" transform="translate(-4 0.745728)"/>
</clipPath>
</defs>
</svg>
