<svg width="55" height="56" viewBox="0 0 55 56" fill="none" xmlns="http://www.w3.org/2000/svg">
<mask id="mask0_81_100" style="mask-type:luminance" maskUnits="userSpaceOnUse" x="2" y="3" width="51" height="49">
<path d="M4.79985 25.5616C4.77238 25.2447 4.81097 24.9255 4.9132 24.6244C5.01542 24.3232 5.17903 24.0466 5.39365 23.8121C5.60827 23.5776 5.86921 23.3904 6.15991 23.2622C6.45062 23.1341 6.76474 23.0679 7.08235 23.0678H11.4583C12.0661 23.0678 12.649 23.3097 13.0787 23.7401C13.5085 24.1705 13.75 24.7543 13.75 25.3631V47.1679C13.75 47.7766 13.5085 48.3604 13.0787 48.7909C12.649 49.2213 12.0661 49.4631 11.4583 49.4631H8.97641C8.40284 49.4633 7.85007 49.248 7.42727 48.8598C7.00447 48.4716 6.74238 47.9387 6.69277 47.3664L4.79985 25.5616ZM20.625 24.6458C20.625 23.6864 21.2208 22.828 22.0859 22.4194C23.9754 21.5266 27.194 19.7329 28.6458 17.3079C30.5169 14.1818 30.8699 8.53437 30.9271 7.241C30.9352 7.05967 30.9306 6.87835 30.9546 6.69932C31.2652 4.45802 35.5838 7.07574 37.2395 9.8438C38.139 11.3449 38.2536 13.3177 38.1596 14.8589C38.0577 16.5069 37.5753 18.0986 37.102 19.6801L36.0937 23.0506H48.534C48.8881 23.0506 49.2373 23.1328 49.5544 23.2906C49.8714 23.4485 50.1476 23.6778 50.3614 23.9606C50.5751 24.2433 50.7204 24.5718 50.7861 24.9203C50.8517 25.2688 50.8359 25.6277 50.7397 25.969L44.5866 47.7922C44.4508 48.2735 44.1617 48.6972 43.7633 48.9988C43.365 49.3004 42.8791 49.4635 42.3797 49.4631H22.9166C22.3088 49.4631 21.7259 49.2213 21.2962 48.7909C20.8664 48.3604 20.625 47.7766 20.625 47.1679V24.6458Z" fill="#FFFEEE" stroke="white" stroke-width="4" stroke-linecap="round" stroke-linejoin="round"/>
</mask>
<g mask="url(#mask0_81_100)">
<path d="M0 0.115417H55V55.2012H0V0.115417Z" fill="#00924F"/>
</g>
</svg>
