<svg width="17" height="17" viewBox="0 0 17 17" fill="none" xmlns="http://www.w3.org/2000/svg">
<g clip-path="url(#clip0_95_276)">
<path d="M8.704 0C11.3772 0 13.8525 1.18575 15.4938 3.1824C15.5406 3.239 15.5755 3.30442 15.5964 3.37478C15.6174 3.44514 15.624 3.519 15.6158 3.59196C15.6076 3.66492 15.5849 3.73549 15.5489 3.79947C15.5129 3.86346 15.4644 3.91954 15.4062 3.9644C15.2879 4.05714 15.1381 4.10013 14.9887 4.08426C14.8392 4.06839 14.7018 3.99491 14.6055 3.8794C13.8878 3.01004 12.9861 2.31083 11.9654 1.83223C10.9447 1.35363 9.83048 1.10757 8.70315 1.1118C4.5254 1.1118 1.13815 4.42 1.13815 8.5C1.13815 12.58 4.5254 15.8882 8.70315 15.8882C9.84673 15.8926 10.9766 15.6394 12.009 15.1475C13.0414 14.6556 13.9498 13.9375 14.6667 13.0466C14.7613 12.93 14.8976 12.8547 15.0468 12.8367C15.1959 12.8188 15.3462 12.8596 15.4657 12.9506C15.5244 12.9947 15.5735 13.0501 15.6103 13.1136C15.6471 13.177 15.6708 13.2473 15.6799 13.32C15.689 13.3928 15.6834 13.4667 15.6634 13.5373C15.6434 13.6079 15.6094 13.6737 15.5635 13.7309C13.9247 15.7794 11.4163 17 8.704 17C3.89555 17 0 13.1946 0 8.5C0 3.80545 3.8964 0 8.704 0ZM14.5333 6.086L16.8334 8.38695C17.0561 8.6088 17.0603 8.96495 16.8436 9.18255L14.5962 11.4291C14.4896 11.5335 14.3458 11.5912 14.1966 11.5896C14.0474 11.588 13.905 11.5272 13.8006 11.4206C13.7476 11.369 13.7054 11.3074 13.6762 11.2394C13.6471 11.1714 13.6316 11.0983 13.6308 11.0243C13.6299 10.9503 13.6436 10.8769 13.6712 10.8083C13.6987 10.7396 13.7395 10.677 13.7912 10.6242L15.1062 9.3092H6.3427C6.2688 9.3101 6.19545 9.29643 6.12684 9.26898C6.05823 9.24153 5.99569 9.20083 5.94281 9.14921C5.88992 9.09759 5.84773 9.03606 5.81862 8.96813C5.78952 8.9002 5.77409 8.8272 5.7732 8.7533C5.7732 8.4456 6.0282 8.19655 6.3427 8.19655H15.0714L13.747 6.87225C13.6403 6.76798 13.5794 6.62558 13.5776 6.47639C13.5759 6.32719 13.6335 6.1834 13.7377 6.07665C13.8445 5.97241 13.9882 5.91483 14.1374 5.91659C14.2866 5.91834 14.429 5.97928 14.5333 6.086Z" fill="black"/>
</g>
<defs>
<clipPath id="clip0_95_276">
<rect width="17" height="17" fill="white"/>
</clipPath>
</defs>
</svg>
