<svg width="29" height="44" viewBox="0 0 29 44" fill="none" xmlns="http://www.w3.org/2000/svg">
<path d="M14.5 0C6.49509 0 0 6.26906 0 13.9939C0 26.4329 14.5 43.5365 14.5 43.5365C14.5 43.5365 29 26.4329 29 13.9939C29 6.26906 22.5049 0 14.5 0ZM14.5 21.7683C13.3529 21.7683 12.2315 21.4035 11.2777 20.7201C10.3239 20.0367 9.58049 19.0653 9.1415 17.9289C8.70251 16.7924 8.58765 15.5419 8.81145 14.3354C9.03524 13.1289 9.58764 12.0207 10.3988 11.1509C11.2099 10.2811 12.2434 9.68874 13.3685 9.44876C14.4936 9.20878 15.6598 9.33194 16.7196 9.80268C17.7794 10.2734 18.6852 11.0706 19.3225 12.0934C19.9598 13.1162 20.3 14.3187 20.3 15.5488C20.2983 17.1977 19.6867 18.7786 18.5994 19.9446C17.512 21.1106 16.0377 21.7665 14.5 21.7683Z" fill="black"/>
</svg>
