<svg width="16" height="17" viewBox="0 0 16 17" fill="none" xmlns="http://www.w3.org/2000/svg">
<path fill-rule="evenodd" clip-rule="evenodd" d="M4.74213 4.0998V3.22785C4.74213 2.37177 5.08533 1.55075 5.69621 0.945415C6.3071 0.340076 7.13564 0 7.99957 0C8.86349 0 9.69203 0.340076 10.3029 0.945415C10.9138 1.55075 11.257 2.37177 11.257 3.22785V4.0998C12.3836 4.13165 13.0699 4.24613 13.5954 4.67392C14.3164 5.25924 14.5162 6.25256 14.9184 8.24005L15.4395 10.8223C16.0163 13.6801 16.3047 15.1089 15.5229 16.0549C14.7403 17 13.2697 17 10.3275 17H5.67159C2.73034 17 1.25885 17 0.477069 16.0549C-0.304715 15.1098 -0.0163234 13.6809 0.560459 10.8223L1.08165 8.24005C1.48296 6.25256 1.68362 5.25924 2.40373 4.67392C2.93013 4.24699 3.61637 4.13165 4.743 4.0998M6.04511 3.22785C6.04511 2.7142 6.25102 2.22159 6.61755 1.85839C6.98409 1.49518 7.48121 1.29114 7.99957 1.29114C8.51792 1.29114 9.01505 1.49518 9.38158 1.85839C9.74811 2.22159 9.95403 2.7142 9.95403 3.22785V4.08861H6.04511V3.22785ZM10.6055 7.53165C10.8359 7.53165 11.0568 7.44096 11.2197 7.27953C11.3826 7.11811 11.4742 6.89917 11.4742 6.67089C11.4742 6.4426 11.3826 6.22366 11.2197 6.06224C11.0568 5.90081 10.8359 5.81013 10.6055 5.81013C10.3751 5.81013 10.1542 5.90081 9.99129 6.06224C9.82838 6.22366 9.73686 6.4426 9.73686 6.67089C9.73686 6.89917 9.82838 7.11811 9.99129 7.27953C10.1542 7.44096 10.3751 7.53165 10.6055 7.53165ZM6.26227 6.67089C6.26227 6.89917 6.17075 7.11811 6.00785 7.27953C5.84494 7.44096 5.624 7.53165 5.39362 7.53165C5.16324 7.53165 4.9423 7.44096 4.77939 7.27953C4.61649 7.11811 4.52497 6.89917 4.52497 6.67089C4.52497 6.4426 4.61649 6.22366 4.77939 6.06224C4.9423 5.90081 5.16324 5.81013 5.39362 5.81013C5.624 5.81013 5.84494 5.90081 6.00785 6.06224C6.17075 6.22366 6.26227 6.4426 6.26227 6.67089Z" fill="black"/>
</svg>
