<svg width="13" height="15" viewBox="0 0 13 15" fill="none" xmlns="http://www.w3.org/2000/svg">
<path d="M10.2637 10.2062C9.73834 10.2062 9.26367 10.4128 8.90767 10.7442L4.20367 8.00617C4.23701 7.85283 4.26367 7.6995 4.26367 7.5395C4.26367 7.3795 4.23701 7.22617 4.20367 7.07283L8.90367 4.33283C9.26367 4.66617 9.73701 4.87283 10.2637 4.87283C11.3703 4.87283 12.2637 3.9795 12.2637 2.87283C12.2637 1.76617 11.3703 0.872833 10.2637 0.872833C9.15701 0.872833 8.26367 1.76617 8.26367 2.87283C8.26367 3.03283 8.29034 3.18617 8.32367 3.3395L3.62367 6.0795C3.26367 5.74617 2.79034 5.5395 2.26367 5.5395C1.15701 5.5395 0.263672 6.43283 0.263672 7.5395C0.263672 8.64617 1.15701 9.5395 2.26367 9.5395C2.79034 9.5395 3.26367 9.33283 3.62367 8.9995L8.32234 11.7448C8.2848 11.8958 8.26511 12.0506 8.26367 12.2062C8.26367 12.6017 8.38097 12.9884 8.60073 13.3173C8.8205 13.6462 9.13285 13.9025 9.49831 14.0539C9.86376 14.2053 10.2659 14.2449 10.6539 14.1677C11.0418 14.0906 11.3982 13.9001 11.6779 13.6204C11.9576 13.3407 12.1481 12.9843 12.2252 12.5963C12.3024 12.2084 12.2628 11.8063 12.1114 11.4408C11.9601 11.0753 11.7037 10.763 11.3748 10.5432C11.0459 10.3235 10.6592 10.2062 10.2637 10.2062Z" fill="white"/>
</svg>
