<svg width="16" height="16" viewBox="0 0 16 16" fill="none" xmlns="http://www.w3.org/2000/svg">
<path d="M1.96413 0H13.7489C14.289 0 14.7506 0.2 15.1336 0.59C15.5166 0.98 15.713 1.45 15.713 2V9C15.713 9.55 15.5166 10.02 15.1336 10.41C14.7506 10.8 14.289 11 13.7489 11H12.7668L7.8565 16V11H1.96413C1.42399 11 0.962421 10.8 0.579417 10.41C0.196412 10.02 0 9.55 0 9V2C0 1.45 0.196412 0.98 0.579417 0.59C0.962421 0.2 1.42399 0 1.96413 0ZM12.7668 2H1.96413V3H12.7668V2ZM13.7489 5H1.96413V6H13.7489V5ZM10.8027 8H1.96413V9H10.8027V8Z" fill="black"/>
</svg>
